<?xml version="1.0" encoding="UTF-8"?>
<!-- Created with Inkscape (http://www.inkscape.org/) -->
<svg version="1.1" viewBox="0 0 256 256" xmlns="http://www.w3.org/2000/svg">
 <g transform="matrix(1.333 0 0 -1.333 0 256)">
  <g transform="translate(78 69.83)">
   <path d="m0 0v52.34l46-26.17zm102.3 68.81c-2.024 7.622-7.988 13.62-15.56 15.66-13.72 3.702-68.76 3.702-68.76 3.702s-55.04 0-68.76-3.702c-7.572-2.037-13.54-8.039-15.56-15.66-3.678-13.81-3.678-42.64-3.678-42.64s0-28.82 3.678-42.64c2.024-7.622 7.988-13.62 15.56-15.66 13.72-3.701 68.76-3.701 68.76-3.701s55.04 0 68.76 3.701c7.572 2.038 13.54 8.04 15.56 15.66 3.678 13.82 3.678 42.64 3.678 42.64s0 28.82-3.678 42.64" fill="#fff"/>
  </g>
 </g>
</svg>
